<?xml version="1.0" encoding="UTF-8"?>
<svg viewBox="0 0 1920 1080" xmlns="http://www.w3.org/2000/svg">
 <defs>
  <filter id="h" x="-.0201" y="-.17234" width="1.0402" height="1.3447">
   <feGaussianBlur stdDeviation="16.0735"/>
  </filter>
  <filter id="x" x="-.76332" y="-.76332" width="2.5266" height="2.5266">
   <feGaussianBlur stdDeviation="38.5535"/>
  </filter>
  <filter id="w" x="-1.2" y="-1.2" width="3.4" height="3.4">
   <feGaussianBlur stdDeviation="60.6092"/>
  </filter>
  <filter id="v" x="-.228" y="-.228" width="1.456" height="1.456">
   <feGaussianBlur stdDeviation="11.5157"/>
  </filter>
  <filter id="c" x="-.03458" y="-.22635" width="1.0692" height="1.4527">
   <feGaussianBlur stdDeviation="27.6276"/>
  </filter>
  <filter id="g" x="-.09538" y="-.42816" width="1.1908" height="1.8563">
   <feGaussianBlur stdDeviation="76.593"/>
  </filter>
  <filter id="u" x="-.06603" y="-.29642" width="1.1321" height="1.5928">
   <feGaussianBlur stdDeviation="53.0259"/>
  </filter>
  <filter id="t" x="-.0134" y="-.11489" width="1.0268" height="1.2298">
   <feGaussianBlur stdDeviation="10.7157"/>
  </filter>
  <filter id="s" x="-.0268" y="-.22978" width="1.0536" height="1.4596">
   <feGaussianBlur stdDeviation="21.4313"/>
  </filter>
  <filter id="r" x="-.58934" y="-.57297" width="2.1787" height="2.1459">
   <feGaussianBlur stdDeviation="17.3636"/>
  </filter>
  <filter id="f" x="-.82206" y="-.79922" width="2.6441" height="2.5984">
   <feGaussianBlur stdDeviation="24.2201"/>
  </filter>
  <filter id="a" x="-1.2171" y="-1.1833" width="3.4343" height="3.3667">
   <feGaussianBlur stdDeviation="35.8604"/>
  </filter>
  <filter id="q" x="-1.0885" y="-1.0583" width="3.1771" height="3.1166">
   <feGaussianBlur stdDeviation="32.0714"/>
  </filter>
  <filter id="e" x="-.17217" y="-.22008" width="1.3443" height="1.4402">
   <feGaussianBlur stdDeviation="8.9179"/>
  </filter>
  <filter id="p" x="-.28643" y="-.17513" width="1.5728" height="1.3503">
   <feGaussianBlur stdDeviation="36.4852"/>
  </filter>
  <filter id="d" x="-1.3517" y="-.16948" width="3.7034" height="1.339">
   <feGaussianBlur stdDeviation="39.6614"/>
  </filter>
  <filter id="o" x="-.16237" y="-1.4882" width="1.3248" height="3.9763">
   <feGaussianBlur stdDeviation="38.0109"/>
  </filter>
  <filter id="n" x="-.7207" y="-.20401" width="2.4414" height="1.408">
   <feGaussianBlur stdDeviation="47.0699"/>
  </filter>
  <filter id="m" x="-.85553" y="-.17883" width="2.7111" height="1.3576">
   <feGaussianBlur stdDeviation="41.5174"/>
  </filter>
  <filter id="l" x="-.09383" y="-.10626" width="1.1877" height="1.2125">
   <feGaussianBlur stdDeviation="15.7016"/>
  </filter>
  <filter id="k" x="-.06663" y="-.17167" width="1.1333" height="1.3433">
   <feGaussianBlur stdDeviation="20.8091"/>
  </filter>
  <filter id="j" x="-.02018" y="-.16652" width="1.0404" height="1.333">
   <feGaussianBlur stdDeviation="16.1392"/>
  </filter>
  <linearGradient id="i" x1="961.67" x2="1056.6" y1="341.44" y2="537.41" gradientUnits="userSpaceOnUse">
   <stop stop-color="#fff" offset="0"/>
   <stop stop-color="#fff" stop-opacity="0" offset="1"/>
  </linearGradient>
  <radialGradient id="b" cx="932.94" cy="240.91" r="958.63" gradientTransform="matrix(.01628 .38498 -.89813 .03799 1204.3 178.37)" gradientUnits="userSpaceOnUse">
   <stop stop-color="#49c0f6" offset="0"/>
   <stop stop-color="#49c0f6" stop-opacity="0" offset="1"/>
  </radialGradient>
 </defs>
 <g transform="translate(0 27.638)">
  <path transform="translate(0 -27.638)" d="m2.0203-2.8835h1927.4v1084.9h-1927.4z" fill-rule="evenodd"/>
  <path transform="translate(0 -27.638)" d="m2.0203 702.2-2.0203 379.82 1927.4 2.0203-4.0407-602.05c-627.18 4.4872-1267.2 75.659-1921.3 220.21" opacity=".5287"/>
  <path transform="matrix(1 0 0 1.1735 0 -134.05)" d="m902.86 525.71 45.714-28.571-305.71-471.43 260 500" fill="#5dabd5" filter="url(#p)"/>
  <path transform="matrix(1.5158 0 0 1.5158 -518.44 -267.91)" d="m1040.5 465.83c0 20.084-15.829 36.365-35.355 36.365s-35.355-16.281-35.355-36.365 15.829-36.365 35.355-36.365 35.355 16.281 35.355 36.365z" fill="#7ce8fe" fill-rule="evenodd" filter="url(#a)"/>
  <path transform="matrix(1.5158 0 0 1.5158 -518.44 -267.91)" d="m1040.5 465.83c0 20.084-15.829 36.365-35.355 36.365s-35.355-16.281-35.355-36.365 15.829-36.365 35.355-36.365 35.355 16.281 35.355 36.365z" fill="#7ce8fe" fill-rule="evenodd" filter="url(#a)"/>
  <path transform="matrix(1.5158 0 0 1.5158 -518.44 -267.91)" d="m1040.5 465.83c0 20.084-15.829 36.365-35.355 36.365s-35.355-16.281-35.355-36.365 15.829-36.365 35.355-36.365 35.355 16.281 35.355 36.365z" fill="#7ce8fe" fill-rule="evenodd" filter="url(#q)"/>
  <path transform="translate(0 -27.638)" d="m0 698.16c653.45-164.33 1272.7-237.12 1923.3-232.34l4.0407-30.305-668.72 18.183c-138.05-312.27-477.56-185.74-533.36 60.609l-723.27 129.3-2.0203 54.548" fill="#63bdf0" filter="url(#u)" opacity=".659"/>
  <path d="m4.0406 654.36c653.45-164.33 1272.7-237.12 1923.3-232.34l4.0407-30.305-668.72 18.183c-138.05-312.27-477.56-185.74-533.36 60.609l-723.27 129.3-2.0203 54.548" fill="#63bdf0" filter="url(#g)" opacity=".659"/>
  <path transform="translate(0 -64.003)" d="m1056.6 532.5c0 33.474-27.136 60.609-60.609 60.609s-60.609-27.136-60.609-60.609 27.136-60.609 60.609-60.609 60.609 27.136 60.609 60.609z" fill="#fff" fill-rule="evenodd" filter="url(#x)"/>
  <path transform="translate(0 -27.638)" d="m2.0203 702.2c644.99-142.04 1285.1-220.24 1919.3-222.23-639.76-13.529-1279.5 57.984-1919.3 222.23" fill="#e9feff" filter="url(#h)"/>
  <path transform="translate(0 -64.003)" d="m1056.6 532.5c0 33.474-27.136 60.609-60.609 60.609s-60.609-27.136-60.609-60.609 27.136-60.609 60.609-60.609 60.609 27.136 60.609 60.609z" fill="#fff" fill-rule="evenodd" filter="url(#v)"/>
  <path d="m8.0812 642.24c644.99-142.04 1285.1-220.24 1919.3-222.23-639.76-13.529-1279.5 57.984-1919.3 222.23" fill="#e9feff" filter="url(#h)"/>
  <path transform="matrix(1.1257 0 0 1 -120.25 0)" d="m4.0406 654.36c653.45-164.33 1272.7-237.12 1923.3-232.34l4.0407-30.305-668.72 18.183c-138.05-312.27-477.56-185.74-533.36 60.609l-723.27 129.3-2.0203 54.548" fill="#63bdf0" filter="url(#g)" opacity=".659"/>
  <path transform="translate(0 -66.024)" d="m1056.6 532.5c0 33.474-27.136 60.609-60.609 60.609s-60.609-27.136-60.609-60.609 27.136-60.609 60.609-60.609 60.609 27.136 60.609 60.609z" fill="#fff" fill-rule="evenodd" filter="url(#w)"/>
  <path d="m4.0406 664.46c644.99-142.04 1285.1-220.24 1919.3-222.23-639.76-13.529-1279.5 57.984-1919.3 222.23" fill="#e9feff" filter="url(#t)"/>
  <path transform="matrix(1.007 0 0 1 .33146 0)" d="m4.0406 656.38c644.99-142.04 1285.1-220.24 1919.3-222.23-636.98-20.079-1267.5 29.732-1919.3 222.23" fill="#e9feff" filter="url(#s)"/>
  <path transform="matrix(.8975 0 0 .64394 133.02 126.23)" d="m1980.1 586.83-646.67 70.925c-231.26 431-579.17 429.69-871.85 164.95l-441.99 7.0588-8.7734-25.147c670.27-139.21 1375.4-280.79 1975.8-269.51l-15.526 61.132" fill="url(#b)" filter="url(#c)" opacity=".4674"/>
  <path transform="matrix(.8975 0 0 .76737 131 70.247)" d="m1919.3 593.11-585.89 64.65c-269.52 239.61-581.42 62.61-880.85 8.0812l-446.49 66.67-2.0203-28.284c670.27-139.21 1316.9-227.45 1917.3-216.17l-2.0203 105.06" fill="url(#b)" filter="url(#c)" opacity=".4674"/>
  <path transform="translate(0 -27.638)" d="m1040.5 465.83c0 20.084-15.829 36.365-35.355 36.365s-35.355-16.281-35.355-36.365 15.829-36.365 35.355-36.365 35.355 16.281 35.355 36.365z" fill="#fff" fill-rule="evenodd"/>
  <path transform="translate(0 -27.638)" d="m1040.5 465.83c0 20.084-15.829 36.365-35.355 36.365s-35.355-16.281-35.355-36.365 15.829-36.365 35.355-36.365 35.355 16.281 35.355 36.365z" fill="#fff" fill-rule="evenodd" filter="url(#r)"/>
  <path transform="translate(0 -27.638)" d="m1040.5 465.83c0 20.084-15.829 36.365-35.355 36.365s-35.355-16.281-35.355-36.365 15.829-36.365 35.355-36.365 35.355 16.281 35.355 36.365z" fill="#fff" fill-rule="evenodd" filter="url(#f)"/>
  <path transform="translate(0 -27.638)" d="m1040.5 465.83c0 20.084-15.829 36.365-35.355 36.365s-35.355-16.281-35.355-36.365 15.829-36.365 35.355-36.365 35.355 16.281 35.355 36.365z" fill="#fff" fill-rule="evenodd" filter="url(#f)"/>
  <path transform="translate(0 -27.638)" d="m1040.5 465.83c0 20.084-15.829 36.365-35.355 36.365s-35.355-16.281-35.355-36.365 15.829-36.365 35.355-36.365 35.355 16.281 35.355 36.365z" fill="#fff" fill-rule="evenodd" filter="url(#a)"/>
  <path transform="matrix(1.5158 0 0 1.5158 -518.44 -267.91)" d="m1040.5 465.83c0 20.084-15.829 36.365-35.355 36.365s-35.355-16.281-35.355-36.365 15.829-36.365 35.355-36.365 35.355 16.281 35.355 36.365z" fill="#7ce8fe" fill-rule="evenodd" filter="url(#a)"/>
  <path transform="matrix(1.5158 0 0 1.5158 -518.44 -267.91)" d="m1040.5 465.83c0 20.084-15.829 36.365-35.355 36.365s-35.355-16.281-35.355-36.365 15.829-36.365 35.355-36.365 35.355 16.281 35.355 36.365z" fill="#7ce8fe" fill-rule="evenodd" filter="url(#a)"/>
  <path transform="matrix(1.5158 0 0 1.5158 -518.44 -267.91)" d="m1040.5 465.83c0 20.084-15.829 36.365-35.355 36.365s-35.355-16.281-35.355-36.365 15.829-36.365 35.355-36.365 35.355 16.281 35.355 36.365z" fill="#7ce8fe" fill-rule="evenodd" filter="url(#a)"/>
  <path transform="matrix(1.5158 0 0 1.5158 -518.44 -267.91)" d="m1040.5 465.83c0 20.084-15.829 36.365-35.355 36.365s-35.355-16.281-35.355-36.365 15.829-36.365 35.355-36.365 35.355 16.281 35.355 36.365z" fill="#7ce8fe" fill-rule="evenodd" filter="url(#a)"/>
  <path transform="translate(0 -27.638)" d="m2.0203 702.2c644.99-142.04 1285.1-220.24 1919.3-222.23-259.39-5.4855-518.78 3.0092-778.18 25.997-103.47 9.1696-206.94 20.645-310.41 34.46-276.9 36.969-553.8 90.687-830.7 161.78" fill="#e9feff"/>
  <path transform="matrix(.8975 0 0 .44454 78.471 341.45)" d="m1919.3 593.11-585.89 64.65c-269.52 239.61-581.42 62.61-880.85 8.0812l-446.49 66.67-2.0203-28.284c670.27-139.21 1316.9-227.45 1917.3-216.17l-2.0203 105.06" fill="url(#b)" filter="url(#c)" opacity=".4674"/>
  <path transform="translate(0 -27.638)" d="m1919.3 593.11-585.89 64.65c-269.52 239.61-581.42 62.61-880.85 8.0812l-446.49 66.67-2.0203-28.284c670.27-139.21 1316.9-227.45 1917.3-216.17l-2.0203 105.06" fill="url(#b)" filter="url(#c)" opacity=".4674"/>
  <path transform="matrix(.25663 1.2771 -1.2606 .26001 1506.8 -931.24)" d="m902.86 525.71 45.714-28.571-305.71-471.43 260 500" fill="#fff" filter="url(#d)"/>
  <path transform="matrix(1.1133 0 0 .64394 -160.63 158.55)" d="m1919.3 593.11-585.89 64.65c-269.52 239.61-557.83 203.79-857.26 149.27l-319.46 29.021-25.611-0.0474c670.27-139.21 1189.8-359.22 1790.2-347.94l-2.0203 105.06" fill="url(#b)" filter="url(#c)" opacity=".4674"/>
  <path transform="translate(0 -27.638)" d="m2.0203 702.2c644.99-142.04 1285.1-220.24 1919.3-222.23-259.39-5.4855-524.85-21.235-784.24 1.7532-103.47 9.1696-202.9 18.625-306.37 32.439-276.9 36.969-551.78 116.95-828.68 188.04" fill="url(#i)" filter="url(#j)"/>
  <path transform="matrix(.9575 .28843 -.28843 .9575 191.43 -295.39)" d="m902.86 525.71 45.714-28.571-305.71-471.43 260 500" fill="#5dabd5" filter="url(#n)"/>
  <path transform="matrix(.97205 .35944 -.37441 .93317 293.69 -345.58)" d="m902.86 525.71 45.714-28.571-305.71-471.43 260 500" fill="#5dabd5" filter="url(#m)"/>
  <path transform="translate(0 -27.638)" d="m943.48 524.42-309.11 2.0203 264.66-22.223-177.79-76.772 214.15 68.69-137.38-147.48 165.67 105.06-121.22-288.9 153.54 272.74-6.0609-238.4 34.345 238.4 113.14-155.56-68.69 165.67 208.09-129.3-195.97 147.48 284.86-111.12-280.82 133.34 299.01-18.183c-101.87 17.471-204.3 31.623-307.09 42.426-44.387 4.6654-88.84 8.7065-133.34 12.122" fill="#fff" filter="url(#k)"/>
  <path transform="matrix(.82261 .5686 -.5686 .82261 545.67 -498.62)" d="m902.86 525.71 45.714-28.571-305.71-471.43 260 500" fill="#5dabd5" filter="url(#d)"/>
  <path transform="matrix(.90887 -.83177 1.3618 .55512 -607.03 821.71)" d="m840 538.08 45.714-28.571-305.71-471.43 260 500" fill="#5dabd5" filter="url(#o)"/>
  <path transform="matrix(.25663 1.2771 -1.2606 .26001 1506.8 -931.24)" d="m942.74 570.7 24.667-18.432-266.63-445.84 241.96 464.27" fill="#fff" filter="url(#l)"/>
  <path transform="matrix(.25663 1.2771 -1.2606 .26001 1506.8 -931.24)" d="m902.86 525.71 45.714-28.571-305.71-471.43 260 500" fill="#5dabd5" filter="url(#d)"/>
  <path transform="translate(0 -27.638)" d="m2.0203 702.2c644.99-142.04 1285.1-220.24 1919.3-222.23-259.39-5.4855-518.78 3.0092-778.18 25.997-103.47 9.1696-206.94 20.645-310.41 34.46-276.9 36.969-553.8 90.687-830.7 161.78" fill="#fff"/>
  <path transform="matrix(-.14946 1.2241 -1.2003 -.14271 1862.4 -634.37)" d="m902.86 525.71 45.714-28.571-305.71-471.43 260 500" fill="#5dabd5" filter="url(#d)"/>
  <path d="m1009.3 409.5c-34.321 0-62.156 27.836-62.156 62.156 0 13.023 4.0281 25.107 10.875 35.094l108.78-11.531c2.9826-7.2694 4.6562-15.218 4.6562-23.562 0-34.321-27.836-62.156-62.156-62.156z" fill="#fff" fill-rule="evenodd" filter="url(#e)"/>
  <path transform="matrix(1 0 0 1.7786 0 -355.25)" d="m1919.3 593.11-585.89 64.65c-269.52 239.61-621.82 66.018-880.85 8.0812l-444.47-33.289 10.102-43.051c678.17-94.738 1304.9-100.67 1903.1-101.45l-2.0203 105.06" fill="url(#b)" filter="url(#c)" opacity=".4674"/>
  <path d="m1009.3 409.5c-34.321 0-62.156 27.836-62.156 62.156 0 13.023 4.0281 25.107 10.875 35.094l108.78-11.531c2.9826-7.2694 4.6562-15.218 4.6562-23.562 0-34.321-27.836-62.156-62.156-62.156z" fill="#fff" fill-rule="evenodd" filter="url(#e)"/>
  <path d="m1009.3 420.56c-26.512 0-48.014 21.502-48.014 48.014 0 10.06 3.1116 19.395 8.4006 27.109l84.031-8.9076c2.304-5.6154 3.5968-11.756 3.5968-18.201 0-26.512-21.502-48.014-48.014-48.014z" fill="#fff" fill-rule="evenodd"/>
 </g>
</svg>
